Coordinates
version=1
nRows=16
nColumns=40
inDegrees=yes

Units are S.I. units (second, meters, Newtons, ...)
Angles are in degrees.

endheader
time	pelvis_tilt	pelvis_list	pelvis_rotation	pelvis_tx	pelvis_ty	pelvis_tz	hip_flexion_r	hip_adduction_r	hip_rotation_r	knee_angle_r	knee_angle_r_beta	ankle_angle_r	subtalar_angle_r	mtp_angle_r	hip_flexion_l	hip_adduction_l	hip_rotation_l	knee_angle_l	knee_angle_l_beta	ankle_angle_l	subtalar_angle_l	mtp_angle_l	lumbar_extension	lumbar_bending	lumbar_rotation	arm_flex_r	arm_add_r	arm_rot_r	elbow_flex_r	pro_sup_r	wrist_flex_r	wrist_dev_r	arm_flex_l	arm_add_l	arm_rot_l	elbow_flex_l	pro_sup_l	wrist_flex_l	wrist_dev_l
     46.29000000	     -4.91660952	     -8.24947164	     -0.28663626	      1.08224856	      0.92576542	      0.47403568	     14.24272032	      7.29904462	    -14.24984424	     19.43067928	     19.43067928	     11.21401438	      1.62930816	     -0.23116340	     32.36064476	    -17.46024496	      4.06398349	     73.76892093	     73.76892093	     -0.24807596	    -18.81069515	     11.89897259	    -12.36580745	      6.03893429	      3.51665291	     10.98608494	    -14.33929258	     -1.58867742	     71.19685584	     45.70108212	      0.00000000	      0.00000000	      9.54629970	     -7.54781746	     -9.02848873	     36.39034306	     45.93312237	      0.00000000	      0.00000000
     46.30178571	     -5.00267308	     -8.19378605	     -0.08708077	      1.08055046	      0.92671784	      0.47414396	     13.50377438	      7.31966934	    -14.32946228	     18.77184867	     18.77184867	     11.33558759	      1.87858341	     -0.17061863	     34.13787246	    -17.32047669	      4.12306711	     72.83160594	     72.83160594	      0.67742022	    -18.97774617	     12.09977954	    -12.40034248	      5.97686002	      3.20864735	     13.44271151	    -14.10803572	     -1.61929304	     73.41361759	     45.63478459	      0.00000000	      0.00000000	      8.03742792	     -7.66220034	     -8.94217779	     34.76452965	     45.90745285	      0.00000000	      0.00000000
     46.31357143	     -5.07880658	     -8.06427251	      0.08820402	      1.07882061	      0.92763375	      0.47411455	     12.78630033	      7.24993018	    -14.36653687	     18.15647708	     18.15647708	     11.36012273	      2.10481075	     -0.40821518	     35.76900314	    -16.98031466	      4.18922736	     71.72594377	     71.72594377	      2.12649216	    -19.04076350	     14.02371566	    -12.49299191	      5.87897855	      3.51329266	     15.27388679	    -14.86666026	     -0.60150228	     76.85064059	     45.48144134	      0.00000000	      0.00000000	      7.53270364	     -7.49839161	     -8.77276597	     31.44427507	     45.92443417	      0.00000000	      0.00000000
     46.32535714	     -5.13763362	     -7.97109228	      0.28681049	      1.07719623	      0.92854765	      0.47416642	     11.99761783	      7.25873382	    -14.34528557	     17.43039629	     17.43039629	     11.41510317	      2.24107060	     -0.36204426	     37.16434539	    -16.68853628	      4.20568512	     70.23204790	     70.23204790	      2.96615585	    -19.11475833	     14.38371503	    -12.58750942	      5.77086389	      3.33350937	     17.71794381	    -14.57512680	     -0.88589718	     78.90057197	     45.43187396	      0.00000000	      0.00000000	      6.14522205	     -7.56183068	     -8.71455164	     30.01214746	     45.90793240	      0.00000000	      0.00000000
     46.33714286	     -5.23461710	     -7.83278207	      0.47560205	      1.07558212	      0.92931894	      0.47405145	     11.24691293	      7.20590798	    -14.34160728	     16.68192682	     16.68192682	     11.36471572	      2.38693374	     -0.70978006	     38.46527846	    -16.24156024	      4.24397889	     68.50171343	     68.50171343	      4.10638551	    -19.12126874	     15.86494663	    -12.63694990	      5.64002955	      3.62086935	     19.68979851	    -14.99840963	     -0.61373642	     81.65510499	     45.33643147	      0.00000000	      0.00000000	      5.53199679	     -7.47618099	     -8.51692958	     27.43093148	     45.92119154	      0.00000000	      0.00000000
     46.34892857	     -5.33285814	     -7.68362724	      0.68595632	      1.07396451	      0.93007572	      0.47386629	     10.47842625	      7.14809813	    -14.31987219	     15.89359879	     15.89359879	     11.39376670	      2.53940766	     -0.66656694	     39.53047987	    -15.73303189	      4.27681813	     66.32207734	     66.32207734	      4.75344070	    -19.11031031	     16.02639289	    -12.70215576	      5.47299766	      3.56396970	     22.02756543	    -14.78610362	     -0.89323241	     83.53429955	     45.29367143	      0.00000000	      0.00000000	      4.25436855	     -7.53465347	     -8.45385472	     26.38288437	     45.90239556	      0.00000000	      0.00000000
     46.36071429	     -5.47417316	     -7.51965046	      0.89991585	      1.07236498	      0.93063520	      0.47349464	      9.72617134	      7.06351945	    -14.35084964	     15.03722870	     15.03722870	     11.30597594	      2.74723595	     -1.02539205	     40.46621314	    -15.12274644	      4.34953094	     63.80118631	     63.80118631	      5.35798739	    -19.03732478	     16.20259321	    -12.72622173	      5.31920984	      3.81123704	     23.97873725	    -15.12292789	     -0.76437582	     86.10211127	     45.21484893	      0.00000000	      0.00000000	      3.36331320	     -7.54164637	     -8.13077127	     24.97012620	     45.87390433	      0.00000000	      0.00000000
     46.37250000	     -5.73973031	     -7.28624747	      1.07892948	      1.07064700	      0.93093293	      0.47293739	      9.19743975	      6.87231784	    -14.34135156	     14.35030207	     14.35030207	     11.33507376	      2.85903255	     -0.95843415	     41.30596096	    -14.37328098	      4.41245597	     60.88088092	     60.88088092	      5.89806384	    -18.93522106	     16.17869701	    -12.59724865	      5.03690457	      4.00181487	     26.23232443	    -15.26875763	     -1.10568079	     87.52287133	     45.18981712	      0.00000000	      0.00000000	      2.23507763	     -7.55648677	     -8.08284438	     24.41338013	     45.85022448	      0.00000000	      0.00000000
     46.38428571	     -5.83364624	     -7.13222284	      1.35796342	      1.06914642	      0.93130772	      0.47218499	      8.28729208	      6.80166723	    -14.41341600	     13.31730726	     13.31730726	     11.40096040	      3.26096160	     -0.97516668	     41.77082782	    -13.58652456	      4.69912829	     57.57876966	     57.57876966	      6.21973893	    -18.69122256	     15.82271121	    -12.67560663	      4.93700737	      3.79169196	     28.33151250	    -14.96107905	     -1.05830000	     89.90157518	     45.12154828	      0.00000000	      0.00000000	      0.91920372	     -7.65368401	     -7.91985450	     23.82057251	     45.80450844	      0.00000000	      0.00000000
     46.39607143	     -6.03420663	     -6.94103313	      1.58819071	      1.06758080	      0.93133275	      0.47125457	      7.57174348	      6.64806721	    -14.54521936	     12.44053134	     12.44053134	     11.47922359	      3.64232828	     -1.06073393	     42.11391213	    -12.77765256	      4.94013284	     53.92078567	     53.92078567	      6.48919018	    -18.28899965	     15.21333102	    -12.62840902	      4.77814673	      3.86598757	     30.34163807	    -15.09652121	     -0.99768857	     92.07930529	     45.06024421	      0.00000000	      0.00000000	     -0.28876149	     -7.70820959	     -7.71733624	     23.57899505	     45.74833729	      0.00000000	      0.00000000
     46.40785714	     -6.26643700	     -6.82828836	      1.81958401	      1.06604077	      0.93098670	      0.47015796	      6.88126380	      6.56204685	    -14.75890006	     11.55423375	     11.55423375	     11.57080293	      4.20176745	     -1.24962147	     42.31957681	    -12.06664725	      5.22646607	     49.99725230	     49.99725230	      6.51131530	    -17.64718027	     13.97409387	    -12.58121457	      4.74222320	      4.01094111	     32.25422952	    -15.41091075	     -0.79505387	     94.58090590	     44.98638383	      0.00000000	      0.00000000	     -1.61864385	     -7.77296440	     -7.31499453	     23.75810038	     45.64864577	      0.00000000	      0.00000000
     46.41964286	     -6.47808714	     -6.67444412	      1.99962199	      1.06466556	      0.93036210	      0.46895784	      6.25078140	      6.40015550	    -14.98682300	     10.87043041	     10.87043041	     11.73782394	      4.71682239	     -1.66136736	     42.16670342	    -11.42323195	      5.35343417	     45.65205854	     45.65205854	      5.78533014	    -16.97482318	     10.71329900	    -12.51632758	      4.63128921	      4.42979241	     33.98951846	    -16.10552529	     -0.56868527	     97.09730492	     44.92489728	      0.00000000	      0.00000000	     -3.23002684	     -8.01395491	     -5.53979619	     25.14706232	     45.30448607	      0.00000000	      0.00000000
     46.43142857	     -6.75959996	     -6.55318260	      2.15251153	      1.06332085	      0.92935579	      0.46767149	      5.76641924	      6.27687001	    -14.96795268	     10.33054168	     10.33054168	     12.04742876	      4.85745861	     -1.70705115	     42.07911270	    -10.81882293	      5.54647730	     41.53762956	     41.53762956	      6.33654107	    -15.72025944	     10.95837387	    -12.27876424	      4.55232527	      4.62492463	     36.10715576	    -16.22386954	     -0.78606559	     98.30245524	     44.90430505	      0.00000000	      0.00000000	     -4.30413027	     -8.02398363	     -5.37567091	     24.85999008	     45.25997411	      0.00000000	      0.00000000
     46.44321429	     -6.78474471	     -6.50328284	      2.31495687	      1.06235989	      0.92844291	      0.46626002	      4.89814268	      6.24437654	    -15.06271883	      9.64408576	      9.64408576	     12.43703298	      5.31660716	     -1.75863976	     41.55896320	    -10.37434687	      5.64075314	     37.44266665	     37.44266665	      6.75787827	    -14.39704841	     11.26078451	    -12.33086514	      4.60465445	      4.59249390	     38.07329161	    -16.11655838	     -0.56353941	    100.17165396	     44.84970681	      0.00000000	      0.00000000	     -5.61877174	     -8.07029163	     -5.08613365	     24.85080331	     45.18712846	      0.00000000	      0.00000000
     46.45500000	     -7.00794577	     -6.56558268	      2.45729668	      1.06137330	      0.92682058	      0.46480072	      4.41246878	      6.28397854	    -15.14417472	      9.27071103	      9.27071103	     12.86310412	      5.54814866	     -1.88100928	     41.25175082	    -10.06897244	      5.69101401	     33.64846951	     33.64846951	      7.14745743	    -13.04527717	     11.71045809	    -12.11182138	      4.74899818	      4.83558832	     40.04065062	    -16.37693844	     -0.55543954	    101.43501495	     44.82003432	      0.00000000	      0.00000000	     -6.71888985	     -7.98992028	     -4.92936433	     24.85623680	     45.13929030	      0.00000000	      0.00000000
     46.46678571	     -6.91842374	     -6.64807080	      2.56910923	      1.06096816	      0.92536330	      0.46325904	      3.45147392	      6.35366051	    -15.43467687	      8.73215753	      8.73215753	     13.39139006	      6.37027182	     -1.90202605	     40.55359176	     -9.88796229	      5.52259034	     30.27479531	     30.27479531	      7.61766369	    -11.81494252	     12.52421136	    -12.28526138	      4.95134881	      4.70828397	     41.84793829	    -16.49016314	      0.48954501	    103.86384279	     44.72674609	      0.00000000	      0.00000000	     -8.53385465	     -8.09477202	     -4.25177804	     25.98720835	     44.98623751	      0.00000000	      0.00000000
